<?xml version="1.0" encoding="UTF-8"?>
<svg width="24" height="24" version="1.1" viewBox="0 0 24 24" xml:space="preserve" xmlns="http://www.w3.org/2000/svg" xmlns:cc="http://creativecommons.org/ns#" xmlns:dc="http://purl.org/dc/elements/1.1/" xmlns:rdf="http://www.w3.org/1999/02/22-rdf-syntax-ns#"><metadata><rdf:RDF><cc:Work rdf:about=""><dc:format>image/svg+xml</dc:format><dc:type rdf:resource="http://purl.org/dc/dcmitype/StillImage"/><dc:title/></cc:Work></rdf:RDF></metadata><style type="text/css">
	.st0{fill:#00BBB4;}
	.st1{fill:#1B75BC;}
	.st2{fill:#F15A29;}
</style><path class="st0" d="m20.352 0h-16.704c-2.0146 0-3.6478 1.497-3.6478 3.3438v20.656l4.5351-3.9344 3.8649 3.9344 3.6-3.9344 3.6 3.9344 3.8649-3.9344 4.5351 3.9344v-20.656c0-1.8467-1.6332-3.3438-3.6478-3.3438zm-15.699 4.0391h12.183c0.60298 0 1.0909 0.44775 1.0909 1s-0.48793 1-1.0909 1h-12.183c-0.60298 0-1.0909-0.44775-1.0909-1s0.48793-1 1.0909-1zm0 3.5156h6.0916c0.60299 0 1.0909 0.44775 1.0909 1s-0.48792 1-1.0909 1h-6.0916c-0.60298 0-1.0909-0.44775-1.0909-1s0.48793-1 1.0909-1zm14.693 10.039h-14.693c-0.60298 0-1.0909-0.44775-1.0909-1s0.48793-1 1.0909-1h14.693c0.60298 0 1.0909 0.44775 1.0909 1s-0.48793 1-1.0909 1zm0-3.5938h-14.693c-0.60298 0-1.0909-0.44775-1.0909-1s0.48793-1 1.0909-1h14.693c0.60298 0 1.0909 0.44775 1.0909 1s-0.48793 1-1.0909 1z" fill="#00bb82" stroke-width="1.0445"/></svg>
